<svg xmlns="http://www.w3.org/2000/svg" viewBox="0 0 1200 618.46"><defs><style>.cls-1{fill:#dd2a1b;fill-rule:evenodd;}</style></defs><title>Asset 8</title><g id="Layer_2" data-name="Layer 2"><g id="Layer_1-2" data-name="Layer 1"><path class="cls-1" d="M1200,618.46c-54.51-8.59-132.39-40.93-185.56-61.64-50-19.22-172-67.54-303.58-126.32-8.38,3.36-16.34,6.64-23.7,9.5-81.7,31.34-411,121.7-435.89,4.14-15.24-72.35,97.6-94.41,125.46-170.3a65.54,65.54,0,0,0,3-12.37c-65.1-41.1-110.56-79.25-117.67-109.57C253.39,114,289,93,325.69,99.69c62.05,11.87,120,67.55,132,131.79,71.19,44.55,149,87.76,228.49,129.29,48-19.3,112.07-52.06,96.5-85.83C730.33,159.23,185.82,50.51,59.87,20.18,33.53,13.7,25.49,12.11,0,1.33,27.77-1,35.39,0,62.81,2.5c160.86,15.17,704,92.73,779.78,243.31,34.36,67.87-16.77,120.42-75.85,156,94.14,47,188.61,91.72,276.48,134.5,48.09,22.57,115.31,51.21,156.78,82.2ZM611.89,385.1C556,358.49,500.74,330.77,451.4,303.58c-16.09,46.41-52.74,82.87-90.68,114.19,68.25,6.07,181.6-14.57,251.17-32.67Z"/></g></g></svg>